<svg data-v-fde0c5aa="" xmlns="http://www.w3.org/2000/svg" viewBox="0 0 300 300" class="iconLeft"><!----><defs data-v-fde0c5aa=""><!----></defs><rect data-v-fde0c5aa="" fill="transparent" x="0" y="0" width="300px" height="300px" class="logo-background-square"></rect><defs data-v-fde0c5aa=""><!----></defs><g data-v-fde0c5aa="" id="36c116a4-5c9b-48be-a5a0-309d1d61032e" fill="#000000" transform="matrix(1.5801259775783645,0,0,1.5801259775783645,68.86796027910128,133.93011868747396)"><path d="M1.45 7.03L0.17 6.64L0.27 5.89L7.66 5.89L7.31 8.39L6.45 8.26L6.13 6.79L3.39 6.79L3.39 10.04L4.98 10.04L5.30 9.13L6.30 8.93L6.03 11.98L5.11 12.17L4.89 10.94L3.39 10.94L3.39 13.21L4.96 13.62L4.86 14.40L0.25 14.40L0.33 13.67L1.45 13.24L1.45 7.03ZM12.12 14.39L7.83 14.39L7.94 13.59L8.96 13.22L8.96 9.71L7.92 9.28L8.06 8.44L10.29 8.22L10.50 8.44L10.37 9.70L10.50 9.73L10.50 9.73Q10.75 8.92 11.19 8.52L11.19 8.52L11.19 8.52Q11.63 8.12 12.11 8.12L12.11 8.12L12.11 8.12Q12.59 8.12 12.85 8.39L12.85 8.39L12.85 8.39Q13.12 8.65 13.12 9.05L13.12 9.05L13.12 9.05Q13.12 9.71 12.50 10.23L12.50 10.23L12.50 10.23Q12.02 9.93 11.64 9.93L11.64 9.93L11.64 9.93Q11.26 9.93 10.98 10.25L10.98 10.25L10.98 10.25Q10.71 10.58 10.59 11.10L10.59 11.10L10.59 13.13L12.20 13.45L12.12 14.39ZM16.26 9.13L16.26 9.13L16.26 9.13Q15.11 9.13 15.11 10.90L15.11 10.90L15.11 10.90Q15.11 12.56 15.74 13.22L15.74 13.22L15.74 13.22Q16.08 13.58 16.62 13.58L16.62 13.58L16.62 13.58Q17.16 13.58 17.43 13.15L17.43 13.15L17.43 13.15Q17.71 12.71 17.71 12.12L17.71 12.12L17.71 12.12Q17.71 11.53 17.67 11.16L17.67 11.16L17.67 11.16Q17.63 10.78 17.53 10.40L17.53 10.40L17.53 10.40Q17.43 10.02 17.27 9.75L17.27 9.75L17.27 9.75Q16.92 9.13 16.26 9.13ZM13.54 12.58L13.54 12.58L13.54 12.58Q13.36 12.02 13.36 11.31L13.36 11.31L13.36 11.31Q13.36 10.60 13.64 9.96L13.64 9.96L13.64 9.96Q13.92 9.32 14.38 8.91L14.38 8.91L14.38 8.91Q15.34 8.06 16.64 8.06L16.64 8.06L16.64 8.06Q17.94 8.06 18.70 8.88L18.70 8.88L18.70 8.88Q19.47 9.71 19.47 11.21L19.47 11.21L19.47 11.21Q19.47 12.72 18.60 13.65L18.60 13.65L18.60 13.65Q17.74 14.58 16.38 14.58L16.38 14.58L16.38 14.58Q14.14 14.58 13.54 12.58ZM23.38 14.40L19.84 14.40L19.93 13.61L20.93 13.22L20.93 9.75L19.92 9.29L20.05 8.46L22.45 8.22L22.63 8.42L22.50 9.21L22.59 9.23L22.59 9.23Q23.57 8.15 24.60 8.15L24.60 8.15L24.60 8.15Q25.39 8.15 25.83 8.64L25.83 8.64L25.83 8.64Q26.26 9.13 26.26 10.10L26.26 10.10L26.26 13.22L27.26 13.56L27.15 14.40L24.12 14.40L24.16 13.61L24.63 13.22L24.63 10.96L24.63 10.96Q24.63 9.73 23.71 9.73L23.71 9.73L23.71 9.73Q23.06 9.73 22.60 10.20L22.60 10.20L22.60 13.22L23.53 13.56L23.38 14.40ZM29.95 12.10L29.95 12.10Q29.95 12.69 30.18 12.95L30.18 12.95L30.18 12.95Q30.41 13.20 30.88 13.20L30.88 13.20L30.88 13.20Q31.36 13.20 31.83 12.91L31.83 12.91L32.01 13.55L32.01 13.55Q31.70 13.98 31.18 14.27L31.18 14.27L31.18 14.27Q30.65 14.55 29.86 14.55L29.86 14.55L29.86 14.55Q29.06 14.55 28.65 14.10L28.65 14.10L28.65 14.10Q28.25 13.64 28.25 12.50L28.25 12.50L28.27 9.45L27.50 9.45L27.50 8.76L27.50 8.76Q28.47 8.10 29.24 7L29.24 7L29.98 7L29.98 8.50L31.88 8.50L31.81 9.47L29.96 9.47L29.95 12.10ZM37.04 7.03L35.77 6.64L35.87 5.89L43.28 5.89L43.07 8.42L42.18 8.29L41.76 6.79L38.98 6.79L38.98 9.72L40.58 9.72L40.89 8.84L41.87 8.65L41.64 11.55L40.69 11.71L40.46 10.55L38.98 10.55L38.98 13.36L41.91 13.36L42.75 11.82L43.59 11.92L43.39 14.40L35.84 14.40L35.91 13.67L37.04 13.24L37.04 7.03ZM47.39 14.40L43.85 14.40L43.94 13.61L44.94 13.22L44.94 9.75L43.93 9.29L44.06 8.46L46.46 8.22L46.64 8.42L46.50 9.21L46.59 9.23L46.59 9.23Q47.58 8.15 48.60 8.15L48.60 8.15L48.60 8.15Q49.40 8.15 49.83 8.64L49.83 8.64L49.83 8.64Q50.27 9.13 50.27 10.10L50.27 10.10L50.27 13.22L51.27 13.56L51.16 14.40L48.13 14.40L48.17 13.61L48.64 13.22L48.64 10.96L48.64 10.96Q48.64 9.73 47.71 9.73L47.71 9.73L47.71 9.73Q47.07 9.73 46.61 10.20L46.61 10.20L46.61 13.22L47.54 13.56L47.39 14.40ZM53.25 11.10L53.25 11.10L53.25 11.10Q53.25 12.11 53.58 12.64L53.58 12.64L53.58 12.64Q53.92 13.17 54.48 13.17L54.48 13.17L54.48 13.17Q55.05 13.17 55.58 12.73L55.58 12.73L55.58 10.04L55.58 10.04Q55.32 9.66 54.99 9.46L54.99 9.46L54.99 9.46Q54.67 9.26 54.34 9.26L54.34 9.26L54.34 9.26Q54.01 9.26 53.74 9.55L53.74 9.55L53.74 9.55Q53.25 10.08 53.25 11.10ZM53.72 14.53L53.72 14.53Q52.71 14.53 52.10 13.77L52.10 13.77L52.10 13.77Q51.50 13.02 51.50 11.93L51.50 11.93L51.50 11.93Q51.50 10.84 51.89 10.02L51.89 10.02L51.89 10.02Q52.29 9.21 53.02 8.71L53.02 8.71L53.02 8.71Q53.75 8.20 54.65 8.20L54.65 8.20L54.65 8.20Q54.90 8.20 55.19 8.27L55.19 8.27L55.19 8.27Q55.48 8.35 55.63 8.45L55.63 8.45L55.67 8.45L55.60 7.77L55.60 7.23L54.48 6.69L54.62 5.88L56.90 5.70L57.18 5.97L57.18 12.38L57.18 12.38Q57.18 12.88 57.35 13.05L57.35 13.05L57.35 13.05Q57.52 13.21 58.02 13.36L58.02 13.36L58.27 13.43L58.15 14.29L58.15 14.29Q56.66 14.83 56.03 14.30L56.03 14.30L56.03 14.30Q55.73 14.05 55.64 13.60L55.64 13.60L55.62 13.54L55.55 13.52L55.55 13.52Q55.21 13.99 54.79 14.26L54.79 14.26L54.79 14.26Q54.36 14.53 53.72 14.53L53.72 14.53ZM63.24 7.03L61.96 6.64L62.06 5.89L69.45 5.89L69.10 8.39L68.24 8.26L67.92 6.79L65.18 6.79L65.18 10.04L66.77 10.04L67.09 9.13L68.09 8.93L67.82 11.98L66.90 12.17L66.68 10.94L65.18 10.94L65.18 13.21L66.75 13.62L66.65 14.40L62.04 14.40L62.12 13.67L63.24 13.24L63.24 7.03ZM73.28 14.40L69.51 14.40L69.60 13.52L70.64 13.21L70.64 7.25L69.54 6.71L69.69 5.87L72.01 5.70L72.29 5.97L72.29 13.21L73.37 13.53L73.28 14.40ZM75.18 12.71L75.18 12.71L75.18 12.71Q75.18 12.96 75.36 13.16L75.36 13.16L75.36 13.16Q75.53 13.36 75.90 13.36L75.90 13.36L75.90 13.36Q76.28 13.36 76.71 12.95L76.71 12.95L76.71 11.57L76.71 11.57Q75.18 11.83 75.18 12.71ZM73.57 13.18L73.57 13.18L73.57 13.18Q73.57 12.29 74.38 11.67L74.38 11.67L74.38 11.67Q75.19 11.04 76.71 10.99L76.71 10.99L76.71 10.47L76.71 10.47Q76.71 9.85 76.44 9.43L76.44 9.43L76.44 9.43Q76.17 9.02 75.75 9.02L75.75 9.02L75.75 9.02Q75.32 9.02 75.20 9.32L75.20 9.32L75.20 9.32Q75.09 9.62 75.02 10.49L75.02 10.49L75.02 10.49Q74.10 10.49 73.87 10.11L73.87 10.11L73.87 10.11Q73.76 9.94 73.76 9.63L73.76 9.63L73.76 9.63Q73.76 9.32 74.20 8.94L74.20 8.94L74.20 8.94Q74.65 8.56 75.30 8.32L75.30 8.32L75.30 8.32Q75.95 8.08 76.54 8.08L76.54 8.08L76.54 8.08Q78.31 8.08 78.31 10.18L78.31 10.18L78.31 12.56L78.31 12.56Q78.31 12.84 78.34 12.90L78.34 12.90L78.34 12.90Q78.36 12.96 78.39 13.04L78.39 13.04L78.39 13.04Q78.42 13.13 78.47 13.15L78.47 13.15L78.47 13.15Q78.51 13.18 78.58 13.23L78.58 13.23L78.58 13.23Q78.69 13.30 78.96 13.35L78.96 13.35L79.23 13.40L79.10 14.27L79.10 14.27Q78.67 14.54 78.08 14.54L78.08 14.54L78.08 14.54Q77.49 14.54 77.25 14.30L77.25 14.30L77.25 14.30Q77.01 14.05 76.90 13.54L76.90 13.54L76.82 13.52L76.82 13.52Q76.65 13.90 76.14 14.23L76.14 14.23L76.14 14.23Q75.63 14.56 74.99 14.56L74.99 14.56L74.99 14.56Q74.35 14.56 73.96 14.20L73.96 14.20L73.96 14.20Q73.57 13.84 73.57 13.18ZM81.86 14.64L81.86 14.64L81.86 14.64Q80.88 14.64 80.24 14.26L80.24 14.26L80.24 14.26Q79.60 13.89 79.60 13.41L79.60 13.41L79.60 13.41Q79.60 12.92 79.89 12.65L79.89 12.65L79.89 12.65Q80.19 12.39 80.71 12.35L80.71 12.35L80.71 12.35Q80.90 13.04 81.24 13.40L81.24 13.40L81.24 13.40Q81.57 13.75 81.98 13.75L81.98 13.75L81.98 13.75Q82.80 13.75 82.80 13.19L82.80 13.19L82.80 13.19Q82.80 12.78 82.02 12.41L82.02 12.41L82.02 12.41Q81.22 12.03 80.58 11.55L80.58 11.55L80.58 11.55Q80.24 11.31 80.02 10.93L80.02 10.93L80.02 10.93Q79.80 10.55 79.80 10.17L79.80 10.17L79.80 10.17Q79.80 9.78 79.93 9.45L79.93 9.45L79.93 9.45Q80.06 9.12 80.33 8.80L80.33 8.80L80.33 8.80Q80.60 8.48 81.08 8.28L81.08 8.28L81.08 8.28Q81.56 8.08 82.31 8.08L82.31 8.08L82.31 8.08Q83.06 8.08 83.60 8.38L83.60 8.38L83.60 8.38Q84.14 8.68 84.14 9.18L84.14 9.18L84.14 9.18Q84.14 9.67 83.82 9.96L83.82 9.96L83.82 9.96Q83.50 10.25 83.02 10.29L83.02 10.29L82.88 9.86L82.88 9.86Q82.63 8.87 81.85 8.87L81.85 8.87L81.85 8.87Q81.54 8.87 81.36 9.06L81.36 9.06L81.36 9.06Q81.18 9.24 81.18 9.50L81.18 9.50L81.18 9.50Q81.18 9.76 81.41 9.98L81.41 9.98L81.41 9.98Q81.64 10.21 81.99 10.38L81.99 10.38L81.99 10.38Q82.34 10.55 82.74 10.78L82.74 10.78L82.74 10.78Q83.15 11.01 83.49 11.25L83.49 11.25L83.49 11.25Q83.84 11.49 84.08 11.87L84.08 11.87L84.08 11.87Q84.31 12.26 84.31 12.71L84.31 12.71L84.31 12.71Q84.31 13.58 83.57 14.11L83.57 14.11L83.57 14.11Q82.84 14.64 81.86 14.64ZM88.07 14.40L84.55 14.40L84.65 13.60L85.66 13.22L85.66 7.22L84.53 6.69L84.65 5.87L86.97 5.70L87.26 5.97L87.26 8.42L87.14 9.24L87.22 9.26L87.22 9.26Q88.26 8.15 89.26 8.15L89.26 8.15L89.26 8.15Q90.05 8.15 90.49 8.61L90.49 8.61L90.49 8.61Q90.92 9.07 90.92 10.17L90.92 10.17L90.92 13.23L91.93 13.57L91.81 14.40L88.79 14.40L88.83 13.62L89.28 13.23L89.30 10.95L89.30 10.95Q89.30 10.31 89.04 10.02L89.04 10.02L89.04 10.02Q88.79 9.73 88.30 9.73L88.30 9.73L88.30 9.73Q87.81 9.73 87.32 10.21L87.32 10.21L87.32 13.22L88.20 13.56L88.07 14.40ZM92.14 11.53L92.14 11.53L92.14 11.53Q92.14 10.73 92.44 10.05L92.44 10.05L92.44 10.05Q92.73 9.37 93.20 8.93L93.20 8.93L93.20 8.93Q94.21 8.01 95.43 8.01L95.43 8.01L95.43 8.01Q96.27 8.01 96.75 8.40L96.75 8.40L96.75 8.40Q97.23 8.78 97.23 9.29L97.23 9.29L97.23 9.29Q97.23 10.22 96.11 10.32L96.11 10.32L96.11 10.32Q95.87 9.64 95.61 9.31L95.61 9.31L95.61 9.31Q95.36 8.99 95.01 8.99L95.01 8.99L95.01 8.99Q94.47 8.99 94.19 9.47L94.19 9.47L94.19 9.47Q93.90 9.96 93.90 10.90L93.90 10.90L93.90 10.90Q93.90 11.79 94.35 12.56L94.35 12.56L94.35 12.56Q94.56 12.94 94.92 13.17L94.92 13.17L94.92 13.17Q95.29 13.41 95.76 13.41L95.76 13.41L95.76 13.41Q96.52 13.41 97.26 12.95L97.26 12.95L97.48 13.51L97.48 13.51Q97.21 13.97 96.55 14.28L96.55 14.28L96.55 14.28Q95.89 14.60 95.14 14.60L95.14 14.60L95.14 14.60Q93.68 14.60 92.91 13.75L92.91 13.75L92.91 13.75Q92.14 12.90 92.14 11.53ZM99.33 12.71L99.33 12.71L99.33 12.71Q99.33 12.96 99.51 13.16L99.51 13.16L99.51 13.16Q99.68 13.36 100.05 13.36L100.05 13.36L100.05 13.36Q100.43 13.36 100.86 12.95L100.86 12.95L100.86 11.57L100.86 11.57Q99.33 11.83 99.33 12.71ZM97.72 13.18L97.72 13.18L97.72 13.18Q97.72 12.29 98.53 11.67L98.53 11.67L98.53 11.67Q99.34 11.04 100.86 10.99L100.86 10.99L100.86 10.47L100.86 10.47Q100.86 9.85 100.59 9.43L100.59 9.43L100.59 9.43Q100.32 9.02 99.90 9.02L99.90 9.02L99.90 9.02Q99.47 9.02 99.35 9.32L99.35 9.32L99.35 9.32Q99.24 9.62 99.17 10.49L99.17 10.49L99.17 10.49Q98.25 10.49 98.02 10.11L98.02 10.11L98.02 10.11Q97.91 9.94 97.91 9.63L97.91 9.63L97.91 9.63Q97.91 9.32 98.36 8.94L98.36 8.94L98.36 8.94Q98.80 8.56 99.45 8.32L99.45 8.32L99.45 8.32Q100.11 8.08 100.69 8.08L100.69 8.08L100.69 8.08Q102.46 8.08 102.46 10.18L102.46 10.18L102.46 12.56L102.46 12.56Q102.46 12.84 102.49 12.90L102.49 12.90L102.49 12.90Q102.51 12.96 102.54 13.04L102.54 13.04L102.54 13.04Q102.57 13.13 102.62 13.15L102.62 13.15L102.62 13.15Q102.66 13.18 102.73 13.23L102.73 13.23L102.73 13.23Q102.84 13.30 103.11 13.35L103.11 13.35L103.38 13.40L103.25 14.27L103.25 14.27Q102.82 14.54 102.23 14.54L102.23 14.54L102.23 14.54Q101.64 14.54 101.40 14.30L101.40 14.30L101.40 14.30Q101.16 14.05 101.05 13.54L101.05 13.54L100.97 13.52L100.97 13.52Q100.80 13.90 100.29 14.23L100.29 14.23L100.29 14.23Q99.78 14.56 99.15 14.56L99.15 14.56L99.15 14.56Q98.51 14.56 98.11 14.20L98.11 14.20L98.11 14.20Q97.72 13.84 97.72 13.18ZM108.01 14.39L103.71 14.39L103.82 13.59L104.85 13.22L104.85 9.71L103.81 9.28L103.95 8.44L106.18 8.22L106.39 8.44L106.26 9.70L106.39 9.73L106.39 9.73Q106.64 8.92 107.08 8.52L107.08 8.52L107.08 8.52Q107.52 8.12 108.00 8.12L108.00 8.12L108.00 8.12Q108.48 8.12 108.74 8.39L108.74 8.39L108.74 8.39Q109.01 8.65 109.01 9.05L109.01 9.05L109.01 9.05Q109.01 9.71 108.38 10.23L108.38 10.23L108.38 10.23Q107.91 9.93 107.53 9.93L107.53 9.93L107.53 9.93Q107.15 9.93 106.87 10.25L106.87 10.25L106.87 10.25Q106.59 10.58 106.48 11.10L106.48 11.10L106.48 13.13L108.09 13.45L108.01 14.39ZM111.01 11.10L111.01 11.10L111.01 11.10Q111.01 12.11 111.34 12.64L111.34 12.64L111.34 12.64Q111.67 13.17 112.24 13.17L112.24 13.17L112.24 13.17Q112.81 13.17 113.33 12.73L113.33 12.73L113.33 10.04L113.33 10.04Q113.07 9.66 112.75 9.46L112.75 9.46L112.75 9.46Q112.42 9.26 112.10 9.26L112.10 9.26L112.10 9.26Q111.77 9.26 111.50 9.55L111.50 9.55L111.50 9.55Q111.01 10.08 111.01 11.10ZM111.47 14.53L111.47 14.53Q110.47 14.53 109.86 13.77L109.86 13.77L109.86 13.77Q109.25 13.02 109.25 11.93L109.25 11.93L109.25 11.93Q109.25 10.84 109.65 10.02L109.65 10.02L109.65 10.02Q110.04 9.21 110.78 8.71L110.78 8.71L110.78 8.71Q111.51 8.20 112.41 8.20L112.41 8.20L112.41 8.20Q112.66 8.20 112.95 8.27L112.95 8.27L112.95 8.27Q113.24 8.35 113.39 8.45L113.39 8.45L113.43 8.45L113.35 7.77L113.35 7.23L112.24 6.69L112.38 5.88L114.66 5.70L114.93 5.97L114.93 12.38L114.93 12.38Q114.93 12.88 115.10 13.05L115.10 13.05L115.10 13.05Q115.27 13.21 115.78 13.36L115.78 13.36L116.03 13.43L115.90 14.29L115.90 14.29Q114.41 14.83 113.78 14.30L113.78 14.30L113.78 14.30Q113.49 14.05 113.40 13.60L113.40 13.60L113.38 13.54L113.31 13.52L113.31 13.52Q112.97 13.99 112.54 14.26L112.54 14.26L112.54 14.26Q112.12 14.53 111.47 14.53L111.47 14.53ZM118.51 14.64L118.51 14.64L118.51 14.64Q117.53 14.64 116.89 14.26L116.89 14.26L116.89 14.26Q116.25 13.89 116.25 13.41L116.25 13.41L116.25 13.41Q116.25 12.92 116.54 12.65L116.54 12.65L116.54 12.65Q116.83 12.39 117.35 12.35L117.35 12.35L117.35 12.35Q117.55 13.04 117.89 13.40L117.89 13.40L117.89 13.40Q118.22 13.75 118.62 13.75L118.62 13.75L118.62 13.75Q119.45 13.75 119.45 13.19L119.45 13.19L119.45 13.19Q119.45 12.78 118.67 12.41L118.67 12.41L118.67 12.41Q117.87 12.03 117.22 11.55L117.22 11.55L117.22 11.55Q116.89 11.31 116.67 10.93L116.67 10.93L116.67 10.93Q116.44 10.55 116.44 10.17L116.44 10.17L116.44 10.17Q116.44 9.78 116.58 9.45L116.58 9.45L116.58 9.45Q116.71 9.12 116.98 8.80L116.98 8.80L116.98 8.80Q117.24 8.48 117.73 8.28L117.73 8.28L117.73 8.28Q118.21 8.08 118.96 8.08L118.96 8.08L118.96 8.08Q119.70 8.08 120.25 8.38L120.25 8.38L120.25 8.38Q120.79 8.68 120.79 9.18L120.79 9.18L120.79 9.18Q120.79 9.67 120.47 9.96L120.47 9.96L120.47 9.96Q120.15 10.25 119.66 10.29L119.66 10.29L119.53 9.86L119.53 9.86Q119.27 8.87 118.49 8.87L118.49 8.87L118.49 8.87Q118.19 8.87 118.01 9.06L118.01 9.06L118.01 9.06Q117.82 9.24 117.82 9.50L117.82 9.50L117.82 9.50Q117.82 9.76 118.06 9.98L118.06 9.98L118.06 9.98Q118.29 10.21 118.64 10.38L118.64 10.38L118.64 10.38Q118.99 10.55 119.39 10.78L119.39 10.78L119.39 10.78Q119.79 11.01 120.14 11.25L120.14 11.25L120.14 11.25Q120.49 11.49 120.72 11.87L120.72 11.87L120.72 11.87Q120.96 12.26 120.96 12.71L120.96 12.71L120.96 12.71Q120.96 13.58 120.22 14.11L120.22 14.11L120.22 14.11Q119.49 14.64 118.51 14.64Z"></path></g><defs data-v-fde0c5aa=""><linearGradient data-v-fde0c5aa="" gradientTransform="rotate(25)" id="83545acc-e150-476f-a9a2-e03dba2848b5" x1="0%" y1="0%" x2="100%" y2="0%"><stop data-v-fde0c5aa="" offset="0%" stop-color="#395ECA" stop-opacity="1"></stop><stop data-v-fde0c5aa="" offset="100%" stop-color="#848BD8" stop-opacity="1"></stop></linearGradient></defs><g data-v-fde0c5aa="" id="ab279b79-e033-402c-8ff3-557c5a6bca8a" stroke="none" fill="url(#83545acc-e150-476f-a9a2-e03dba2848b5)" transform="matrix(0.25280012786955475,0,0,0.25280012786955475,35.428362580185144,137.3601351257589)"><path d="M75.831 81.262c-.461 4.555-4.121 7.827-8.179 7.309l-34.53-4.418c-4.055-.521-6.968-4.632-6.507-9.187l6.035-59.515c.464-4.555 4.123-7.826 8.182-7.307l34.529 4.417c4.057.52 6.969 4.632 6.506 9.187l-6.036 59.514z"></path><path d="M28.725 87.08c-4.055-.519-6.969-4.632-6.508-9.187l6.036-59.514a8.972 8.972 0 0 1 .829-2.969h-3.607c-4.083 0-7.391 3.716-7.391 8.301v59.896c0 4.586 3.308 8.302 7.391 8.302h34.754c.866 0 1.693-.177 2.467-.484L28.725 87.08z"></path></g><!----></svg>